<?xml version="1.0" encoding="UTF-8"?>
<!DOCTYPE svg PUBLIC "-//W3C//DTD SVG 1.1//EN" "http://www.w3.org/Graphics/SVG/1.1/DTD/svg11.dtd">
<!-- Creator: CorelDRAW -->
<svg xmlns="http://www.w3.org/2000/svg" xml:space="preserve" width="33.8667mm" height="16.3352mm" version="1.1" style="shape-rendering:geometricPrecision; text-rendering:geometricPrecision; image-rendering:optimizeQuality; fill-rule:evenodd; clip-rule:evenodd"
viewBox="0 0 137.36 66.25"
 xmlns:xlink="http://www.w3.org/1999/xlink"
 xmlns:xodm="http://www.corel.com/coreldraw/odm/2003">
 <defs>
  <style type="text/css">
   <![CDATA[
    .fil0 {fill:#ED3237}
    .fil1 {fill:#E6E6E6}
    .fil2 {fill:#E6E6E6;fill-rule:nonzero}
   ]]>
  </style>
 </defs>
 <g id="Camada_x0020_1">
  <metadata id="CorelCorpID_0Corel-Layer"/>
  <g id="_2352303873776">
   <g>
    <path class="fil0" d="M12.47 14.92c2.12,8.83 -12.54,12.2 -4.76,22.78 -2.18,-9.05 11.66,-12.77 4.76,-22.78z"/>
    <path class="fil0" d="M15.7 18.67c2.12,8.83 -12.54,12.2 -4.76,22.78 -2.18,-9.05 11.66,-12.77 4.76,-22.78z"/>
    <path class="fil0" d="M18.92 22.43c2.12,8.83 -12.54,12.2 -4.76,22.78 -2.18,-9.05 11.66,-12.77 4.76,-22.78z"/>
   </g>
   <path class="fil1" d="M48.79 9.47l-17.13 0c0,0.01 0,0.03 0,0.04 0,0.38 -1.18,1.22 -4.62,1.95 -0.51,0.11 -1.06,0.21 -1.63,0.3l0 37.36c-0.2,0.06 -0.41,0.11 -0.62,0.16l0 -37.43c-0.2,0.03 -0.41,0.06 -0.62,0.08l0 37.49c-0.2,0.05 -0.41,0.09 -0.62,0.14l0 -37.55c-0.2,0.02 -0.41,0.05 -0.62,0.07l0 37.6c-5.19,0.98 -11.35,0.87 -15.84,-0.32l0 0.02c-0.88,-0.2 -1.71,-0.43 -2.48,-0.69 -0.69,-0.24 -1.27,-0.48 -1.76,-0.73l0 -36.49c-0.23,-0.09 -0.44,-0.18 -0.62,-0.26l0 36.41c-1.17,-0.7 -1.63,-1.38 -1.63,-1.84l0 -35.29c-0.23,-0.11 -0.44,-0.23 -0.62,-0.36l0 35.65c0,2.46 6.31,5.09 15.7,5.09 6.02,0 10.77,-1.08 13.41,-2.51 2.41,-0.94 4.54,-2.25 5.27,-3.98l0 -8.39 8.67 0 0 -9.49 -8.67 0 0 -7.02 14.41 0 0 -10.02z"/>
   <path class="fil1" d="M11.41 1.56c-3.06,0.64 -5.38,1.87 -6.94,2.96 -2.54,1.77 -3.71,3.59 -3.84,4.17 0.12,0.14 0.47,0.38 1.19,0.66 0.41,-0.99 1.62,-2.73 3.86,-4.44 1.4,-1.07 3.4,-2.27 5.98,-3.04 0.53,0.46 1.66,0.8 3.01,0.87 -1.33,2.38 -1.57,4.86 -1.49,6.72 0.02,0.49 0.08,1.1 0.14,1.58 0.78,0.02 1.58,0.04 2.38,0.04 0.74,0 1.47,-0.01 2.19,-0.03 0.02,-0.45 0.02,-0.92 0,-1.41 -0.09,-1.94 -0.58,-4.52 -2.22,-6.89 1.59,-0.07 2.89,-0.5 3.31,-1.07 2.69,0.62 4.82,1.71 6.36,2.72 2.81,1.85 4.27,3.84 4.62,4.8 0.47,-0.21 0.71,-0.39 0.81,-0.5 -0.1,-0.43 -0.76,-1.51 -2.09,-2.75 -2.24,-1.69 -5.11,-3.42 -7.83,-4.17 -0.55,-0.14 -1.14,-0.26 -1.74,-0.36 0.01,-0.04 0.01,-0.08 0.01,-0.12 0,-0.19 -0.1,-0.37 -0.27,-0.54 3.84,0.56 6.68,2.05 8.52,3.34 2.84,2.01 4.02,4.04 4.02,4.68 0,0.38 -0.92,1.22 -4.37,1.95 -3.02,0.63 -7.05,0.98 -11.33,0.98 -1.7,0 -3.36,-0.06 -4.92,-0.16 -0.02,-0.03 -0.03,-0.05 -0.05,-0.08 0.01,0.02 0.01,0.05 0.02,0.07 -2.38,-0.16 -4.56,-0.44 -6.37,-0.82 -3.45,-0.72 -4.37,-1.56 -4.37,-1.95 0,-0.64 1.18,-2.68 4.02,-4.68 1.66,-1.17 4.13,-2.5 7.43,-3.15 -0.07,0.11 -0.11,0.23 -0.11,0.35 0,0.1 0.03,0.19 0.07,0.29zm7.09 9.46c1.71,-0.06 3.36,-0.19 4.87,-0.36 -0.34,-0.77 -0.77,-1.61 -1.31,-2.46 -1.1,-1.73 -2.84,-3.8 -5.38,-5.21 1.34,2.27 1.76,4.66 1.83,6.5 0.02,0.54 0.01,1.05 -0.01,1.53zm5.53 -0.44c0.76,-0.1 1.48,-0.21 2.15,-0.33 -0.29,-0.84 -1.42,-2.81 -3.5,-4.66 -1.2,-1.07 -2.87,-2.23 -4.96,-2.89 2.24,1.45 3.81,3.37 4.84,5.01 0.63,1.01 1.11,1.98 1.48,2.87zm2.65 -0.43c1.14,-0.23 1.99,-0.47 2.62,-0.7 -0.43,-0.87 -1.88,-2.88 -4.39,-4.51 -1.43,-0.93 -3.41,-1.93 -5.87,-2.52 1.62,0.71 2.95,1.68 3.96,2.59 2.23,2.01 3.4,4.13 3.69,5.13zm-24.29 -0.59c0.63,0.21 1.44,0.42 2.5,0.63 0.24,-0.99 1.17,-2.95 3.05,-4.89 0.88,-0.91 2.06,-1.9 3.53,-2.68 -2.29,0.73 -4.07,1.8 -5.35,2.76 -2.19,1.65 -3.36,3.34 -3.73,4.17zm2.98 0.72c0.89,0.16 1.86,0.3 2.89,0.41 0.21,-0.78 0.52,-1.66 0.94,-2.58 0.77,-1.69 2.05,-3.78 4.09,-5.55 -2.19,0.75 -3.87,2.07 -5.01,3.24 -1.76,1.8 -2.67,3.64 -2.91,4.48zm3.44 0.47c1.24,0.12 2.56,0.22 3.92,0.27 -0.07,-0.5 -0.13,-1.14 -0.16,-1.65 -0.09,-1.77 0.11,-4.09 1.19,-6.37 -2.03,1.71 -3.3,3.76 -4.06,5.4 -0.39,0.84 -0.68,1.63 -0.88,2.35z"/>
   <path class="fil1" d="M13.11 60.98c0.32,0.09 0.63,0.15 0.95,0.19 0.04,0 0.08,0 0.11,0.01l0 4.18c-0.57,-0.15 -0.93,-0.35 -1.06,-0.47l0 -3.91zm-0.63 -2.35c0.03,0.02 0.05,0.05 0.08,0.08 0.37,0.47 1.54,0.97 3.23,0.97 1.69,0 2.86,-0.5 3.23,-0.97 0.02,-0.03 0.05,-0.06 0.08,-0.08 0.15,-0.12 0.32,-0.27 0.51,-0.43l-1.04 0c-0.02,0.02 -0.04,0.04 -0.06,0.06 -0.18,0.23 -1.11,0.72 -2.72,0.72 -1.61,0 -2.54,-0.49 -2.72,-0.72 -0.02,-0.02 -0.04,-0.04 -0.06,-0.06l-1.04 0c0.19,0.16 0.36,0.31 0.51,0.43zm-4.09 -3.86l0.96 0c-1.33,-1.34 -2.77,-2.89 -4.06,-4.41 -0.43,-0.13 -0.84,-0.26 -1.22,-0.4 1.31,1.63 2.86,3.33 4.31,4.81zm17.97 -4.49c-1.3,1.55 -2.78,3.13 -4.13,4.49l0.96 0c1.48,-1.52 3.07,-3.26 4.4,-4.91 -0.39,0.15 -0.8,0.29 -1.23,0.43zm-4.71 1.18c-0.45,0 -0.82,0.31 -0.82,0.7 0,0.38 0.37,0.7 0.82,0.7 0.45,0 0.82,-0.31 0.82,-0.7 0,-0.38 -0.37,-0.7 -0.82,-0.7zm-10.54 -0.01c-0.36,0.27 -0.57,0.6 -0.58,0.95 -0.04,1.12 1.93,2.11 4.4,2.21 2.47,0.1 4.51,-0.73 4.55,-1.85 0.02,-0.42 -0.26,-0.83 -0.74,-1.17 -0.97,0.06 -1.98,0.1 -3.03,0.1 -1.63,0 -3.17,-0.08 -4.6,-0.22zm8.04 13.59l0 -5.1c-0.2,0.12 -0.42,0.23 -0.66,0.32l0 4.63c-0.22,0.21 -1.05,0.62 -2.47,0.66 0,-0.87 0,-2.7 0,-3.32 0,-0.55 -0.38,-0.88 -0.64,-1.04 0.05,-0 0.1,-0 0.15,-0.01 0.48,-0.05 0.95,-0.16 1.4,-0.31 0.3,-0.11 0.59,-0.25 0.87,-0.4 -0.6,0.15 -1.27,0.24 -1.98,0.24 -1.33,0 -2.55,-0.3 -3.34,-0.79l0 5.1c0,0.49 1.33,1.23 3.34,1.23 2.01,0 3.34,-0.74 3.34,-1.23z"/>
   <path class="fil1" d="M45.71 40.88l3.98 0 0 -4.35 1.7 0 0.04 0 2.89 4.35 4.59 0 -3.42 -5c1.78,-0.76 2.95,-2.21 2.95,-4.41l0 -0.04c0,-1.41 -0.43,-2.52 -1.27,-3.34 -0.96,-0.98 -2.48,-1.56 -4.67,-1.56l-6.78 0 0 14.35zm3.98 -7.46l0 -3.44 2.6 0c1.33,0 2.15,0.57 2.15,1.7l0 0.04c0,1.05 -0.78,1.7 -2.13,1.7l-2.62 0zm10.84 7.46l4 0 0 -14.35 -4 0 0 14.35zm12.26 0.25c3.48,0 5.8,-1.74 5.8,-4.67l0 -0.04c0,-2.68 -2.05,-3.75 -5.35,-4.47 -1.99,-0.45 -2.48,-0.74 -2.48,-1.39l0 -0.04c0,-0.51 0.47,-0.92 1.43,-0.92 1.27,0 2.71,0.49 4.02,1.41l1.99 -2.81c-1.56,-1.25 -3.46,-1.91 -5.9,-1.91 -3.44,0 -5.55,1.93 -5.55,4.59l0 0.04c0,2.95 2.36,3.81 5.41,4.51 1.95,0.45 2.42,0.78 2.42,1.37l0 0.04c0,0.61 -0.57,0.98 -1.64,0.98 -1.66,0 -3.24,-0.59 -4.65,-1.72l-2.21 2.64c1.76,1.58 4.18,2.38 6.72,2.38zm14.94 0.04c4.43,0 7.75,-3.34 7.75,-7.46l0 -0.04c0,-4.12 -3.28,-7.42 -7.71,-7.42 -4.43,0 -7.75,3.34 -7.75,7.46l0 0.04c0,4.12 3.28,7.42 7.71,7.42zm0.04 -3.59c-2.17,0 -3.67,-1.8 -3.67,-3.87l0 -0.04c0,-2.07 1.45,-3.83 3.63,-3.83 2.19,0 3.69,1.8 3.69,3.87l0 0.04c0,2.07 -1.46,3.83 -3.65,3.83zm12.66 3.3l3.98 0 0 -10.86 4.3 0 0 -3.48 -12.58 0 0 3.48 4.3 0 0 10.86zm10.02 0l11.64 0 0 -3.38 -7.71 0 0 -2.27 6.89 0 0 -3.14 -6.89 0 0 -2.17 7.6 0 0 -3.38 -11.54 0 0 14.35zm20.47 0.29c3.18,0 5,-1.37 6.35,-3.24l-2.99 -2.13c-0.86,1.05 -1.74,1.74 -3.24,1.74 -2.01,0 -3.42,-1.68 -3.42,-3.83l0 -0.04c0,-2.09 1.41,-3.79 3.42,-3.79 1.37,0 2.32,0.66 3.14,1.68l2.99 -2.32c-1.27,-1.76 -3.16,-2.99 -6.09,-2.99 -4.34,0 -7.56,3.28 -7.56,7.46l0 0.04c0,4.28 3.3,7.42 7.4,7.42z"/>
   <path class="fil1" d="M15.23 0c1.85,0 3.35,0.52 3.35,1.16 0,0.64 -1.5,1.16 -3.35,1.16 -1.85,0 -3.35,-0.52 -3.35,-1.16 0,-0.64 1.5,-1.16 3.35,-1.16z"/>
   <path class="fil2" d="M40.33 49.18l1.11 0 0 -4.72 -1.11 0 0 4.72zm3.77 0.07c0.86,0 1.51,-0.58 1.51,-1.44l0 -0.03c0,-0.69 -0.44,-1.09 -1.12,-1.44 -0.54,-0.29 -0.67,-0.43 -0.67,-0.61l0 -0.01c0,-0.19 0.15,-0.32 0.38,-0.32 0.34,0 0.65,0.22 0.85,0.39l0.57 -0.87c-0.46,-0.4 -0.94,-0.53 -1.4,-0.53 -0.9,0 -1.52,0.57 -1.52,1.42l0 0.02c0,0.73 0.47,1.09 1.23,1.49 0.44,0.24 0.57,0.36 0.57,0.55l0 0.01c0,0.21 -0.13,0.37 -0.42,0.37 -0.37,0 -0.72,-0.25 -1.01,-0.5l-0.55 0.9c0.51,0.44 1.05,0.61 1.59,0.61zm4.38 0.02c1.07,0 1.79,-0.87 1.79,-2.35l0 -0.2c0,-1.48 -0.72,-2.34 -1.78,-2.34 -1.07,0 -1.79,0.87 -1.79,2.35l0 0.2c0,1.48 0.71,2.35 1.78,2.35zm0.01 -1.01c-0.38,0 -0.66,-0.4 -0.66,-1.37l0 -0.14c0,-0.96 0.27,-1.36 0.65,-1.36 0.38,0 0.66,0.4 0.66,1.37l0 0.14c0,0.96 -0.27,1.36 -0.65,1.36zm3.06 0.92l2.48 0 0 -1.02 -1.37 0 0 -3.7 -1.11 0 0 4.72zm3.39 0l1.11 0 0.2 -0.86 1.09 0 0.2 0.86 1.14 0 -1.27 -4.74 -1.2 0 -1.27 4.74zm1.52 -1.77l0.33 -1.44 0.33 1.44 -0.66 0zm3.32 1.77l1.07 0 0 -2.58 0.78 1.63 0.01 0 0.78 -1.64 0 2.59 1.09 0 0 -4.72 -1.11 0 -0.76 1.64 -0.76 -1.64 -1.11 0 0 4.72zm5.1 0l2.66 0 0 -1.01 -1.56 0 0 -0.88 1.38 0 0 -0.98 -1.38 0 0 -0.84 1.53 0 0 -1.01 -2.64 0 0 4.72zm3.93 0l1.08 0 0 -2.35 1.21 2.35 1 0 0 -4.72 -1.08 0 0 2.24 -1.15 -2.24 -1.05 0 0 4.72zm5.38 0l1.11 0 0 -3.7 0.89 0 0 -1.02 -2.89 0 0 1.02 0.89 0 0 3.7zm4.72 0.09c1.07,0 1.79,-0.87 1.79,-2.35l0 -0.2c0,-1.48 -0.71,-2.34 -1.78,-2.34 -1.07,0 -1.79,0.87 -1.79,2.35l0 0.2c0,1.48 0.71,2.35 1.78,2.35zm0.01 -1.01c-0.38,0 -0.66,-0.4 -0.66,-1.37l0 -0.14c0,-0.96 0.27,-1.36 0.65,-1.36 0.38,0 0.66,0.4 0.66,1.37l0 0.14c0,0.96 -0.27,1.36 -0.65,1.36zm4.3 0.99c0.86,0 1.51,-0.58 1.51,-1.44l0 -0.03c0,-0.69 -0.44,-1.09 -1.12,-1.44 -0.54,-0.29 -0.67,-0.43 -0.67,-0.61l0 -0.01c0,-0.19 0.15,-0.32 0.38,-0.32 0.34,0 0.65,0.22 0.85,0.39l0.57 -0.87c-0.46,-0.4 -0.94,-0.53 -1.4,-0.53 -0.9,0 -1.52,0.57 -1.52,1.42l0 0.02c0,0.73 0.47,1.09 1.23,1.49 0.44,0.24 0.57,0.36 0.57,0.55l0 0.01c0,0.21 -0.14,0.37 -0.43,0.37 -0.37,0 -0.72,-0.25 -1.01,-0.5l-0.55 0.9c0.51,0.44 1.05,0.61 1.59,0.61zm4.73 -0.07l1.11 0 0 -3.7 0.89 0 0 -1.02 -2.89 0 0 1.02 0.89 0 0 3.7zm4.13 -4.96l0.78 0 0.81 -0.59 -1.02 -0.31 -0.57 0.9zm-0.92 4.96l2.66 0 0 -1.01 -1.56 0 0 -0.88 1.38 0 0 -0.98 -1.38 0 0 -0.84 1.53 0 0 -1.01 -2.64 0 0 4.72zm3.93 0l1.11 0 0 -1.5 0.26 0 0.63 1.5 1.23 0 -0.8 -1.79c0.4,-0.24 0.69,-0.64 0.69,-1.32l0 -0.05c0,-0.49 -0.14,-0.86 -0.4,-1.12 -0.29,-0.29 -0.73,-0.44 -1.29,-0.44l-1.43 0 0 4.72zm1.11 -2.41l0 -1.34 0.28 0c0.38,0 0.61,0.21 0.61,0.65l0 0.03c0,0.42 -0.22,0.66 -0.6,0.66l-0.29 0zm3.26 2.41l1.07 0 0 -2.58 0.78 1.63 0.01 0 0.78 -1.64 0 2.59 1.09 0 0 -4.72 -1.11 0 -0.76 1.64 -0.76 -1.64 -1.11 0 0 4.72zm5.12 0l1.11 0 0 -4.72 -1.11 0 0 4.72zm4.21 0.07c0.54,0 0.95,-0.22 1.27,-0.53l-0.55 -0.86c-0.17,0.17 -0.34,0.33 -0.63,0.33 -0.38,0 -0.76,-0.36 -0.76,-1.35l0 -0.04c0,-0.92 0.35,-1.34 0.76,-1.34 0.26,0 0.46,0.15 0.6,0.31l0.57 -0.89c-0.32,-0.3 -0.7,-0.48 -1.21,-0.48 -1.02,0 -1.85,0.82 -1.85,2.35l0 0.16c0,1.54 0.76,2.34 1.81,2.34zm3.93 0.02c1.07,0 1.79,-0.87 1.79,-2.35l0 -0.2c0,-1.48 -0.71,-2.34 -1.78,-2.34 -1.07,0 -1.79,0.87 -1.79,2.35l0 0.2c0,1.48 0.71,2.35 1.78,2.35zm0.01 -1.01c-0.38,0 -0.66,-0.4 -0.66,-1.37l0 -0.14c0,-0.96 0.27,-1.36 0.65,-1.36 0.38,0 0.66,0.4 0.66,1.37l0 0.14c0,0.96 -0.27,1.36 -0.65,1.36zm4.3 0.99c0.86,0 1.51,-0.58 1.51,-1.44l0 -0.03c0,-0.69 -0.44,-1.09 -1.12,-1.44 -0.54,-0.29 -0.67,-0.43 -0.67,-0.61l0 -0.01c0,-0.19 0.15,-0.32 0.38,-0.32 0.34,0 0.65,0.22 0.85,0.39l0.57 -0.87c-0.46,-0.4 -0.94,-0.53 -1.4,-0.53 -0.9,0 -1.52,0.57 -1.52,1.42l0 0.02c0,0.73 0.47,1.09 1.23,1.49 0.44,0.24 0.57,0.36 0.57,0.55l0 0.01c0,0.21 -0.13,0.37 -0.42,0.37 -0.37,0 -0.72,-0.25 -1.01,-0.5l-0.55 0.9c0.51,0.44 1.05,0.61 1.59,0.61zm5.28 -0.07l2.48 0 0 -1.02 -1.37 0 0 -3.7 -1.11 0 0 4.72zm3.95 0l1.11 0 0 -3.7 0.89 0 0 -1.02 -2.89 0 0 1.02 0.89 0 0 3.7zm3.21 0l1.24 0c1.35,0 2.08,-0.86 2.08,-2.29l0 -0.16c0,-1.42 -0.73,-2.27 -2.07,-2.27l-1.25 0 0 4.72zm1.27 -3.72c0.55,0 0.91,0.35 0.91,1.29l0 0.12c0,0.94 -0.36,1.29 -0.91,1.29l-0.16 0 0 -2.71 0.16 0zm2.86 3.72l1.11 0 0.2 -0.86 1.09 0 0.2 0.86 1.14 0 -1.27 -4.74 -1.2 0 -1.27 4.74zm1.52 -1.77l0.33 -1.44 0.33 1.44 -0.66 0z"/>
  </g>
 </g>
</svg>
